<svg width="1500" height="1500" viewBox="0 0 1500 1500" fill="none" xmlns="http://www.w3.org/2000/svg">
<g clip-path="url(#clip0_45_571)">
<circle cx="750" cy="749.999" r="750" fill="#BF5B39"/>
<path d="M787.111 937.132C787.111 937.132 827.046 762.62 938.728 762.62C1118.06 762.62 1148.61 1066.59 1148.61 1066.59H353.274C353.274 1066.59 387.6 673.69 580.909 673.69C774.219 673.69 787.111 937.132 787.111 937.132Z" fill="#FAF6F5"/>
<path d="M546.168 524.3C546.168 475.229 583.926 432.354 643.116 432.354C702.306 432.354 737.552 475.145 737.552 524.3C737.552 573.454 702.306 616.245 643.116 616.245C583.926 616.245 546.168 574.71 546.168 524.3Z" fill="#FAF6F5"/>
<path d="M844.293 611.804C844.293 562.733 882.051 519.859 941.241 519.859C1000.43 519.859 1035.68 562.649 1035.68 611.804C1035.68 660.959 1000.43 703.749 941.241 703.749C882.051 703.749 844.293 662.215 844.293 611.804Z" fill="#FAF6F5"/>
</g>
<defs>
<clipPath id="clip0_45_571">
<rect width="1500" height="1500" fill="white"/>
</clipPath>
</defs>
</svg>
