<svg version="1.1" xmlns="http://www.w3.org/2000/svg" style="display: block;" viewBox="0 0 2048 1170" width="1344" height="768" preserveAspectRatio="none">
<defs>
	<linearGradient id="Gradient1" gradientUnits="userSpaceOnUse" x1="278.08" y1="855.984" x2="390.859" y2="557.639">
		<stop class="stop0" offset="0" stop-opacity="1" stop-color="rgb(213,64,13)"/>
		<stop class="stop1" offset="1" stop-opacity="1" stop-color="rgb(246,161,46)"/>
	</linearGradient>
	<linearGradient id="Gradient2" gradientUnits="userSpaceOnUse" x1="944.66" y1="743.009" x2="957.186" y2="603.569">
		<stop class="stop0" offset="0" stop-opacity="1" stop-color="rgb(209,180,101)"/>
		<stop class="stop1" offset="1" stop-opacity="1" stop-color="rgb(224,212,156)"/>
	</linearGradient>
	<linearGradient id="Gradient3" gradientUnits="userSpaceOnUse" x1="1814.71" y1="944.704" x2="1430.59" y2="480.436">
		<stop class="stop0" offset="0" stop-opacity="1" stop-color="rgb(225,65,19)"/>
		<stop class="stop1" offset="1" stop-opacity="1" stop-color="rgb(238,186,68)"/>
	</linearGradient>
	<linearGradient id="Gradient4" gradientUnits="userSpaceOnUse" x1="1022.82" y1="435.415" x2="1023.92" y2="583.242">
		<stop class="stop0" offset="0" stop-opacity="1" stop-color="rgb(125,172,149)"/>
		<stop class="stop1" offset="1" stop-opacity="1" stop-color="rgb(170,192,152)"/>
	</linearGradient>
	<linearGradient id="Gradient5" gradientUnits="userSpaceOnUse" x1="622.967" y1="749.022" x2="685.278" y2="451.059">
		<stop class="stop0" offset="0" stop-opacity="1" stop-color="rgb(243,201,118)"/>
		<stop class="stop1" offset="1" stop-opacity="1" stop-color="rgb(246,241,230)"/>
	</linearGradient>
</defs>
<path transform="translate(0,0)" fill="url(#Gradient5)" d="M 1753.47 436.834 C 1865.1 421.497 1942.29 446.287 2048 470.17 L 2048 538.157 L 2048 573.527 L 2048 619.295 L 2048 757.259 C 1989.96 766.87 1942.27 763.988 1885.35 747.355 C 1850.55 737.08 1817.92 721.011 1783.93 708.644 C 1687.5 673.662 1573.31 678.677 1474.81 702.202 C 1377.59 725.418 1288.53 762.546 1186.49 739.118 C 1169.24 735.156 1151.13 732.236 1134.01 726.667 C 1120.86 723.969 1099.67 716.388 1086.79 711.915 C 1067.97 705.293 1049.03 698.977 1030 692.968 C 951.912 668.445 876.999 657.172 795.121 666.468 C 772.452 669.042 753.626 674.458 732.222 677.891 C 722.871 675.918 716.935 682.714 707.835 681.627 C 698.009 680.452 665.894 667.022 661.137 660.532 L 661.724 658.841 C 665.33 657.153 668.756 656.162 672.542 654.964 L 672.714 653.681 C 634.247 664.281 600.729 680.665 564.45 695.143 C 521.744 712.185 454.254 701.746 409.65 693.594 C 400.765 692.797 378.144 687.399 369.077 685.26 C 305.05 670.156 250.857 646.309 185.21 633.585 C 160.126 628.826 134.708 626.039 109.189 625.25 C 78.1865 624.466 29.702 625.626 0 621.304 L 0 576.285 L 0 538.046 L 0 471.975 C 37.564 481.363 76.2002 485.766 114.913 485.072 C 156.665 480.515 183.835 470.612 223.008 459.373 C 273.524 444.88 333.124 444.405 385.062 450.727 C 409.288 454.548 433.32 459.521 457.073 465.629 C 530.37 485.111 590.98 510.024 669.937 504.884 C 726.031 501.232 766.634 480.429 818.278 461.949 C 866.873 444.559 914.5 434.656 965.919 434.063 C 1048.56 433.111 1108.7 462.986 1183.46 490.899 C 1252.37 516.628 1326 532.628 1399.92 529.484 C 1454.15 527.177 1503.45 515.551 1554.37 497.037 C 1590.72 483.819 1625.76 469.278 1662.89 457.549 C 1692.5 448.291 1722.78 441.365 1753.47 436.834 z"/>
<path transform="translate(0,0)" fill="url(#Gradient4)" d="M 1753.47 436.834 C 1865.1 421.497 1942.29 446.287 2048 470.17 L 2048 538.157 L 2048 573.527 C 1974.46 544.774 1902.35 541.743 1825.53 556.599 L 1824.49 556.646 C 1803.02 557.512 1788 554.782 1763.57 557.352 C 1746.86 559.11 1728.02 564.543 1714.79 565.888 C 1689.99 573.272 1666.37 580.39 1642.81 591.35 C 1639.04 593.105 1634.85 594.771 1630.88 595.959 C 1608.45 596.372 1584.14 599.621 1560.82 600.048 C 1519.76 600.8 1481.01 598.732 1440.18 595.968 C 1434.62 596.45 1417.95 594.729 1411.83 594.147 C 1390.31 592.101 1368.58 589.411 1347.13 586.613 C 1336.72 585.255 1324.43 581.886 1314.44 581.051 C 1273.33 576.001 1200.12 559.445 1161.97 545.511 C 1015.27 491.925 858.986 464.334 707.774 518.995 C 681.609 528.569 656.067 539.768 631.299 552.527 C 625.325 555.671 599.227 571.312 594.767 571.623 C 594.133 571.37 593.367 571.064 592.471 570.707 C 584.625 573.609 573.196 575.67 565.077 576.489 C 557.245 577.279 539.812 577.814 532.542 576.445 C 507.359 571.7 482.807 563.792 458.539 556.107 C 438.193 549.538 417.593 543.787 396.787 538.867 C 383.884 535.8 365.45 531.897 352.194 531.853 C 336.802 532.353 317.946 532.914 302.788 531.286 C 244.905 525.066 187.955 532.882 130.201 535.568 C 87.0101 537.577 43.4023 536.506 0 538.046 L 0 471.975 C 37.564 481.363 76.2002 485.766 114.913 485.072 C 156.665 480.515 183.835 470.612 223.008 459.373 C 273.524 444.88 333.124 444.405 385.062 450.727 C 409.288 454.548 433.32 459.521 457.073 465.629 C 530.37 485.111 590.98 510.024 669.937 504.884 C 726.031 501.232 766.634 480.429 818.278 461.949 C 866.873 444.559 914.5 434.656 965.919 434.063 C 1048.56 433.111 1108.7 462.986 1183.46 490.899 C 1252.37 516.628 1326 532.628 1399.92 529.484 C 1454.15 527.177 1503.45 515.551 1554.37 497.037 C 1590.72 483.819 1625.76 469.278 1662.89 457.549 C 1692.5 448.291 1722.78 441.365 1753.47 436.834 z"/>
<path transform="translate(0,0)" fill="rgb(92,145,123)" d="M 1632.58 509.11 C 1666.25 507.263 1698.43 508.032 1731.95 511.959 C 1736.22 512.46 1740.99 512.914 1745.28 513.137 C 1748.28 515.018 1774.06 517.995 1779.55 518.982 C 1826.2 527.374 1874.46 536.559 1921.84 539.714 C 1955.68 543.776 2012.34 538.531 2048 538.157 L 2048 573.527 C 1974.46 544.774 1902.35 541.743 1825.53 556.599 L 1824.49 556.646 C 1803.02 557.512 1788 554.782 1763.57 557.352 C 1746.86 559.11 1728.02 564.543 1714.79 565.888 C 1689.99 573.272 1666.37 580.39 1642.81 591.35 C 1639.04 593.105 1634.85 594.771 1630.88 595.959 C 1608.45 596.372 1584.14 599.621 1560.82 600.048 C 1519.76 600.8 1481.01 598.732 1440.18 595.968 C 1431.91 590.55 1339.76 588.269 1333.06 581.182 C 1341.34 583.125 1362.56 578.867 1371.7 576.873 C 1392.37 572.361 1420.89 569.543 1440.37 562.879 C 1468.26 553.554 1497.67 539.547 1525.07 530.096 C 1548.76 521.927 1608.39 506.199 1632.58 509.11 z"/>
<path transform="translate(0,0)" fill="rgb(63,125,110)" d="M 1632.58 509.11 C 1666.25 507.263 1698.43 508.032 1731.95 511.959 C 1736.22 512.46 1740.99 512.914 1745.28 513.137 C 1748.28 515.018 1774.06 517.995 1779.55 518.982 C 1826.2 527.374 1874.46 536.559 1921.84 539.714 C 1955.68 543.776 2012.34 538.531 2048 538.157 L 2048 573.527 C 1974.46 544.774 1902.35 541.743 1825.53 556.599 L 1824.49 556.646 C 1803.02 557.512 1788 554.782 1763.57 557.352 C 1746.86 559.11 1728.02 564.543 1714.79 565.888 C 1714.7 565.489 1714.95 564.636 1715.05 564.162 C 1753.81 554.124 1788.37 553.514 1828.06 554.496 C 1832.56 554.607 1843.49 550.975 1849.05 550.248 C 1870.13 547.491 1891.15 545.651 1912.42 545.481 C 1918.94 545.384 1931.52 547.693 1937.25 545.543 L 1937.34 543.983 C 1933.01 538.929 1925.57 542.111 1919.17 540.409 C 1896.74 538.813 1872.31 535.342 1849.74 533.607 C 1839.11 532.791 1824.12 526.248 1812.72 526.373 C 1812.57 526.375 1806.5 532.149 1804.98 531.589 C 1793.09 531.812 1770.52 532.244 1760.45 526.277 C 1754.85 522.962 1747.31 514.946 1740.96 514.335 C 1720.38 512.356 1700.16 510.545 1679.67 510.035 C 1670.88 509.817 1637.73 510.626 1632.58 509.11 z"/>
<path transform="translate(0,0)" fill="rgb(92,145,123)" d="M 1753.47 436.834 C 1865.1 421.497 1942.29 446.287 2048 470.17 L 2048 538.157 C 2012.34 538.531 1955.68 543.776 1921.84 539.714 C 1874.46 536.559 1826.2 527.374 1779.55 518.982 C 1774.06 517.995 1748.28 515.018 1745.28 513.137 C 1754.34 510.535 1822.91 525.204 1836.42 527.145 C 1854.94 529.807 1878.27 533.621 1897.67 535.674 C 1947.58 540.956 1995.17 538.274 2045 536.479 C 2045.17 509.825 2046.07 521.699 2026.7 517.066 C 2025.2 516.705 2017.81 510.65 2013.48 509.18 C 1994.84 502.856 1977.03 494.794 1958.61 487.965 C 1948.36 484.106 1938.38 478.835 1928.23 474.671 C 1920.99 471.858 1904.66 470.368 1896.43 467.16 C 1892.83 464.847 1886.39 460.781 1883.54 457.741 C 1877.88 451.696 1868.02 444.842 1867.43 436.684 C 1853.52 431.253 1800.44 435.055 1783.06 435.424 C 1773.18 435.634 1764.08 438.79 1753.47 436.834 z"/>
<path transform="translate(0,0)" fill="rgb(92,145,123)" d="M 0 471.975 C 37.564 481.363 76.2002 485.766 114.913 485.072 L 115.847 486.379 C 111.1 487.754 94.9548 486.721 94.02 487.81 L 96.078 489.623 C 94.6299 493.276 84.63 495.762 80.8824 502.93 C 64.953 503.306 57.1494 508.066 42.3995 512.336 C 34.3898 514.654 28.2107 512.124 21.9059 517.853 C 20.6719 518.975 5.29992 520.729 3.03309 520.69 C 0.221224 543.655 10.3377 534.986 25.8408 535.46 C 100.038 537.732 173.75 529.574 247.757 527.431 C 271.53 526.743 295.379 528.736 319.041 530.723 C 328.356 531.585 343.919 528.705 352.194 531.853 C 336.802 532.353 317.946 532.914 302.788 531.286 C 244.905 525.066 187.955 532.882 130.201 535.568 C 87.0101 537.577 43.4023 536.506 0 538.046 L 0 471.975 z"/>
<path transform="translate(0,0)" fill="rgb(92,145,123)" d="M 114.913 485.072 C 156.665 480.515 183.835 470.612 223.008 459.373 C 273.524 444.88 333.124 444.405 385.062 450.727 C 383.812 451.443 381.905 452.415 380.437 452.207 C 357.85 449.005 334.903 448.868 312.129 449.162 C 281.829 449.314 251.682 453.455 222.464 461.48 C 201.437 467.235 180.792 474.598 159.474 479.52 C 158.336 479.783 157.152 483.893 153.928 484.113 L 152.231 481.197 C 148.551 483.002 150.779 484.886 146.489 486.825 C 145.415 486.028 145.614 483.879 144.355 483.428 C 141.237 482.312 121.745 486.722 115.847 486.379 L 114.913 485.072 z"/>
<path transform="translate(0,0)" fill="url(#Gradient3)" d="M 1825.53 556.599 C 1902.35 541.743 1974.46 544.774 2048 573.527 L 2048 619.295 L 2048 757.259 C 1989.96 766.87 1942.27 763.988 1885.35 747.355 C 1850.55 737.08 1817.92 721.011 1783.93 708.644 C 1687.5 673.662 1573.31 678.677 1474.81 702.202 C 1377.59 725.418 1288.53 762.546 1186.49 739.118 C 1169.24 735.156 1151.13 732.236 1134.01 726.667 C 1138.08 723.593 1144.14 725.833 1149.13 724.408 C 1158.53 721.721 1158.36 725.64 1166.04 729.395 C 1169.44 728.668 1177.97 717.628 1180.57 714.412 C 1182.3 712.263 1181.4 712.187 1180.86 708.674 C 1192.36 699.144 1218.31 691.418 1227.54 683.219 C 1241.44 670.872 1236.89 682.178 1250.29 678.266 C 1252.82 678.134 1264.1 679.716 1267.29 680.01 C 1280.55 681.234 1294.76 683.454 1307.97 684.359 C 1359.86 687.916 1412.05 686.44 1462.21 671.364 C 1472.92 668.147 1485.28 665.856 1495.38 660.755 C 1516.46 656.141 1568.29 627.777 1587.68 617.531 C 1597.16 612.519 1622.94 601.034 1630.88 595.959 C 1634.85 594.771 1639.04 593.105 1642.81 591.35 C 1666.37 580.39 1689.99 573.272 1714.79 565.888 C 1728.02 564.543 1746.86 559.11 1763.57 557.352 C 1788 554.782 1803.02 557.512 1824.49 556.646 L 1825.53 556.599 z"/>
<path transform="translate(0,0)" fill="rgb(244,217,160)" d="M 1825.53 556.599 C 1902.35 541.743 1974.46 544.774 2048 573.527 L 2048 619.295 C 2042.83 618.29 2037.65 617.297 2032.48 616.279 C 1990 607.914 1952.3 587.192 1911.32 574.192 C 1892.46 568.396 1873.24 563.83 1853.79 560.523 C 1844.29 558.984 1834.99 558.371 1825.53 556.599 z"/>
<path transform="translate(0,0)" fill="url(#Gradient2)" d="M 1314.44 581.051 C 1324.43 581.886 1336.72 585.255 1347.13 586.613 C 1368.58 589.411 1390.31 592.101 1411.83 594.147 C 1417.95 594.729 1434.62 596.45 1440.18 595.968 C 1481.01 598.732 1519.76 600.8 1560.82 600.048 C 1584.14 599.621 1608.45 596.372 1630.88 595.959 C 1622.94 601.034 1597.16 612.519 1587.68 617.531 C 1568.29 627.777 1516.46 656.141 1495.38 660.755 C 1485.28 665.856 1472.92 668.147 1462.21 671.364 C 1412.05 686.44 1359.86 687.916 1307.97 684.359 C 1294.76 683.454 1280.55 681.234 1267.29 680.01 C 1264.1 679.716 1252.82 678.134 1250.29 678.266 C 1236.89 682.178 1241.44 670.872 1227.54 683.219 C 1218.31 691.418 1192.36 699.144 1180.86 708.674 C 1181.4 712.187 1182.3 712.263 1180.57 714.412 C 1177.97 717.628 1169.44 728.668 1166.04 729.395 C 1158.36 725.64 1158.53 721.721 1149.13 724.408 C 1144.14 725.833 1138.08 723.593 1134.01 726.667 C 1120.86 723.969 1099.67 716.388 1086.79 711.915 C 1067.97 705.293 1049.03 698.977 1030 692.968 C 951.912 668.445 876.999 657.172 795.121 666.468 C 772.452 669.042 753.626 674.458 732.222 677.891 C 722.871 675.918 716.935 682.714 707.835 681.627 C 698.009 680.452 665.894 667.022 661.137 660.532 L 661.724 658.841 C 665.33 657.153 668.756 656.162 672.542 654.964 L 672.714 653.681 C 634.247 664.281 600.729 680.665 564.45 695.143 C 521.744 712.185 454.254 701.746 409.65 693.594 C 448.139 687.069 521.533 650.267 560.073 633.224 C 587.577 621.333 615.809 611.201 644.599 602.891 C 721.236 580.575 786.923 580.989 864.027 600.856 C 893.057 608.337 924.04 618.234 953.657 621.445 C 977.754 624.058 1006.41 621.731 1031.01 622.204 C 1057.88 622.72 1084.47 624.163 1111.26 625.917 L 1111.68 624.81 C 1122.94 621.458 1132.07 621.786 1142.88 619.94 C 1161.43 616.771 1180.51 613.333 1198.95 609.605 C 1222.65 604.604 1246.25 599.169 1269.75 593.302 C 1279.6 590.87 1306.63 583.49 1314.82 583.333 C 1315.13 582.318 1314.88 582.449 1314.44 581.051 z"/>
<path transform="translate(0,0)" fill="rgb(239,167,75)" d="M 672.714 653.681 C 686.817 647.681 730.812 638.36 746.95 635.299 C 827.056 620.103 921.632 619.62 1002.25 631.952 C 1055.65 640.123 1115.69 653.396 1168.97 664.265 C 1186.15 667.72 1203.4 670.789 1220.71 673.472 C 1228.91 674.768 1243.02 676.479 1250.29 678.266 C 1236.89 682.178 1241.44 670.872 1227.54 683.219 C 1218.31 691.418 1192.36 699.144 1180.86 708.674 C 1181.4 712.187 1182.3 712.263 1180.57 714.412 C 1177.97 717.628 1169.44 728.668 1166.04 729.395 C 1158.36 725.64 1158.53 721.721 1149.13 724.408 C 1144.14 725.833 1138.08 723.593 1134.01 726.667 C 1120.86 723.969 1099.67 716.388 1086.79 711.915 C 1067.97 705.293 1049.03 698.977 1030 692.968 C 951.912 668.445 876.999 657.172 795.121 666.468 C 772.452 669.042 753.626 674.458 732.222 677.891 C 722.871 675.918 716.935 682.714 707.835 681.627 C 698.009 680.452 665.894 667.022 661.137 660.532 L 661.724 658.841 C 665.33 657.153 668.756 656.162 672.542 654.964 L 672.714 653.681 z"/>
<path transform="translate(0,0)" fill="rgb(244,217,160)" d="M 1314.44 581.051 C 1324.43 581.886 1336.72 585.255 1347.13 586.613 C 1368.58 589.411 1390.31 592.101 1411.83 594.147 C 1417.95 594.729 1434.62 596.45 1440.18 595.968 C 1481.01 598.732 1519.76 600.8 1560.82 600.048 C 1584.14 599.621 1608.45 596.372 1630.88 595.959 C 1622.94 601.034 1597.16 612.519 1587.68 617.531 C 1568.29 627.777 1516.46 656.141 1495.38 660.755 C 1490.18 660.259 1469.22 661.641 1462.62 661.894 C 1444.49 662.741 1426.33 662.768 1408.2 661.975 C 1329.23 659.082 1254.94 648.104 1177.44 634.35 C 1159.54 631.174 1127.03 630.762 1111.26 625.917 L 1111.68 624.81 C 1122.94 621.458 1132.07 621.786 1142.88 619.94 C 1161.43 616.771 1180.51 613.333 1198.95 609.605 C 1222.65 604.604 1246.25 599.169 1269.75 593.302 C 1279.6 590.87 1306.63 583.49 1314.82 583.333 C 1315.13 582.318 1314.88 582.449 1314.44 581.051 z"/>
<path transform="translate(0,0)" fill="rgb(63,125,110)" d="M 0 538.046 C 43.4023 536.506 87.0101 537.577 130.201 535.568 C 187.955 532.882 244.905 525.066 302.788 531.286 C 317.946 532.914 336.802 532.353 352.194 531.853 C 365.45 531.897 383.884 535.8 396.787 538.867 C 417.593 543.787 438.193 549.538 458.539 556.107 C 482.807 563.792 507.359 571.7 532.542 576.445 C 539.812 577.814 557.245 577.279 565.077 576.489 C 573.196 575.67 584.625 573.609 592.471 570.707 C 593.367 571.064 594.133 571.37 594.767 571.623 C 543.714 598.783 488.206 616.574 430.875 624.15 C 405.977 627.677 378.195 627.109 352.848 627.578 C 251.273 629.456 149.318 620.92 51.3161 593.051 C 40.0937 589.86 10.2259 580.877 0 576.285 L 0 538.046 z"/>
<path transform="translate(0,0)" fill="rgb(246,234,210)" d="M 707.774 518.995 C 858.986 464.334 1015.27 491.925 1161.97 545.511 C 1200.12 559.445 1273.33 576.001 1314.44 581.051 C 1314.88 582.449 1315.13 582.318 1314.82 583.333 C 1295.49 578.591 1269.76 576.503 1249.53 570.976 C 1243.77 569.4 1212.54 561.491 1208.63 561.947 C 1207.28 566.606 1215.52 575.54 1212.04 582.61 C 1208.49 584.284 1208.82 583.539 1204.1 582.583 C 1199.96 585.62 1197.16 592.819 1191.34 597.562 C 1178.93 597.422 1171.56 594.537 1159.67 593.072 C 1157.72 592.832 1149.15 602.607 1147.78 602.315 C 1143.51 601.409 1141.27 598.805 1136.63 599.541 C 1136.36 601.72 1136.33 602.266 1135.61 604.32 C 1127.72 603.313 1126.79 592.196 1120.96 591.546 C 1110.06 590.333 1096.64 593.994 1086.01 593.31 C 1072.57 592.211 1057.71 589.125 1044.31 589.393 C 1031.52 590.467 1024.9 596.792 1011.78 591.904 C 998.545 586.973 987.156 587.637 973.801 587.115 C 965.788 586.802 955.048 567.936 945.399 574.415 C 942.717 576.217 932.901 573.616 929.433 573.445 C 915.664 561.401 909.208 568.404 892.843 566.506 C 888.979 566.036 881.3 559.831 877.245 559.004 C 866.36 555.974 847.083 553.609 836.951 548.724 C 816.48 538.854 817.718 533.388 793.539 531.629 L 791.336 535.873 C 782.293 536.188 752.322 525.331 741.706 523.843 C 733.682 522.718 723.174 524.771 714.585 523.296 C 709.839 522.48 710.795 522.711 707.774 518.995 z"/>
<path transform="translate(0,0)" fill="url(#Gradient1)" d="M 0 621.304 C 29.702 625.626 78.1865 624.466 109.189 625.25 C 134.708 626.039 160.126 628.826 185.21 633.585 C 250.857 646.309 305.05 670.156 369.077 685.26 C 378.144 687.399 400.765 692.797 409.65 693.594 C 454.254 701.746 521.744 712.185 564.45 695.143 C 600.729 680.665 634.247 664.281 672.714 653.681 L 672.542 654.964 C 668.756 656.162 665.33 657.153 661.724 658.841 L 661.137 660.532 C 665.894 667.022 698.009 680.452 707.835 681.627 C 716.935 682.714 722.871 675.918 732.222 677.891 C 710.652 683.629 686.203 689.644 665.313 696.755 C 577.714 726.573 487.602 760.787 393.302 745.147 C 363.014 740.123 337.106 730.139 307.783 721.617 C 275.952 712.367 243.024 710.576 209.942 712.18 C 162.625 714.474 116.052 726.45 70.5693 738.827 C 54.611 743.169 15.9708 754.023 0 755.282 L 0 621.304 z"/>
</svg>