<svg width="1742" height="460" viewBox="0 0 1742 460" fill="none" xmlns="http://www.w3.org/2000/svg">
<path d="M288.77 277.048C288.77 277.048 299.059 232.088 327.832 232.088C374.032 232.088 381.905 310.401 381.905 310.401H177C177 310.401 185.843 209.177 235.646 209.177C285.449 209.177 288.77 277.048 288.77 277.048Z" fill="#BF5B39"/>
<path d="M226.695 170.688C226.695 158.046 236.423 147 251.672 147C266.921 147 276.002 158.024 276.002 170.688C276.002 183.352 266.921 194.376 251.672 194.376C236.423 194.376 226.695 183.675 226.695 170.688Z" fill="#BF5B39"/>
<path d="M303.502 193.232C303.502 180.59 313.23 169.544 328.479 169.544C343.728 169.544 352.809 180.568 352.809 193.232C352.809 205.896 343.728 216.92 328.479 216.92C313.23 216.92 303.502 206.219 303.502 193.232Z" fill="#BF5B39"/>
<path d="M453.146 176.48H498.183L545.722 279.975H540.036L584.163 176.48H628.063L628.746 186.943L614.416 190.128C614.264 191.644 614.264 194.905 614.416 199.909C614.567 204.913 614.719 211.433 614.871 219.47L616.235 259.959C616.539 266.631 616.766 272.545 616.918 277.7C617.221 282.705 617.448 286.799 617.6 289.983C617.903 293.016 618.131 295.063 618.282 296.125L632.613 299.537L631.93 310H574.61L573.928 299.537L588.258 296.125C588.409 295.367 588.485 293.699 588.485 291.121C588.637 288.391 588.713 284.6 588.713 279.748C588.713 274.744 588.637 268.602 588.485 261.323L587.803 183.077H596.674L542.31 310.682H530.255L471.115 183.077H482.261L482.488 260.868C482.488 272.848 482.564 281.416 482.716 286.571C482.867 291.727 483.019 294.912 483.17 296.125L498.865 299.537L498.183 310H449.961L449.279 299.537L464.974 296.125C465.125 295.063 465.277 293.016 465.429 289.983C465.58 286.799 465.732 282.932 465.883 278.383C466.035 273.834 466.111 268.905 466.111 263.598L466.793 219.925C466.945 211.433 466.945 204.913 466.793 200.364C466.793 195.663 466.793 192.327 466.793 190.355L452.463 186.943L453.146 176.48ZM640.465 310L639.782 299.992L655.022 296.58C655.174 295.973 655.325 294.684 655.477 292.713C655.629 290.742 655.78 288.164 655.932 284.979C656.084 281.643 656.159 277.776 656.159 273.379L656.387 256.092C656.387 251.391 656.235 247.069 655.932 243.126C655.629 239.032 655.098 235.241 654.34 231.753L639.1 228.569V219.243L677.996 209.462L683.227 213.329C682.772 218.03 682.393 222.807 682.09 227.659C681.938 232.36 681.862 237.819 681.862 244.036V272.696C681.862 278.307 681.938 283.387 682.09 287.936C682.393 292.485 682.772 295.367 683.227 296.58L698.467 299.992L697.785 310H640.465ZM669.352 188.308C664.045 188.308 659.799 186.716 656.614 183.532C653.43 180.195 651.838 176.253 651.838 171.704C651.838 167.306 653.43 163.439 656.614 160.103C659.799 156.767 664.045 155.099 669.352 155.099C674.66 155.099 678.83 156.767 681.862 160.103C684.895 163.439 686.412 167.306 686.412 171.704C686.412 176.253 684.895 180.195 681.862 183.532C678.83 186.716 674.66 188.308 669.352 188.308ZM779.562 292.485C777.135 298.551 773.041 303.328 767.279 306.816C761.668 310.303 755.527 312.047 748.854 312.047C738.694 312.047 730.354 309.09 723.834 303.176C717.465 297.262 714.28 288.315 714.28 276.336L714.963 224.475H699.04V217.878L734.297 188.763H740.893L740.438 218.788L739.983 273.379C739.983 280.203 741.576 285.207 744.76 288.391C747.945 291.424 752.418 292.94 758.18 292.94C761.213 292.94 764.094 292.334 766.824 291.121C769.705 289.908 772.207 288.315 774.33 286.344L779.562 292.485ZM728.61 224.475V211.054H773.193V224.475H728.61ZM884.54 311.365C881.203 311.061 877.564 310.834 873.621 310.682C869.679 310.531 865.888 310.379 862.248 310.227C858.761 310.076 855.804 310 853.377 310H783.319L782.637 299.537L796.967 296.125C797.27 295.367 797.498 293.395 797.649 290.211C797.801 287.026 797.877 282.932 797.877 277.928C798.028 272.924 798.104 267.465 798.104 261.551V225.157C798.104 218.94 798.028 213.405 797.877 208.552C797.877 203.548 797.801 199.454 797.649 196.269C797.498 193.085 797.27 191.189 796.967 190.583L782.637 186.943L783.319 176.48H844.734L845.416 187.398L826.537 190.583C826.385 191.038 826.158 192.782 825.855 195.814C825.703 198.696 825.551 202.638 825.4 207.642C825.248 212.647 825.172 218.485 825.172 225.157V261.551C825.172 270.043 825.248 277.094 825.4 282.705C825.551 288.164 825.703 291.803 825.855 293.623C828.281 294.078 830.783 294.381 833.361 294.533C836.09 294.684 839.351 294.76 843.142 294.76H853.832C857.472 294.76 860.504 294.608 862.931 294.305C865.509 294.002 867.783 293.699 869.755 293.395L882.265 269.512L895.003 272.696L884.54 311.365ZM894.894 310L894.211 299.992L909.451 296.58C909.603 295.973 909.754 294.684 909.906 292.713C910.058 290.742 910.209 288.164 910.361 284.979C910.513 281.643 910.588 277.776 910.588 273.379L910.816 256.092C910.816 251.391 910.664 247.069 910.361 243.126C910.058 239.032 909.527 235.241 908.769 231.753L893.529 228.569V219.243L932.425 209.462L937.656 213.329C937.201 218.03 936.822 222.807 936.519 227.659C936.367 232.36 936.292 237.819 936.292 244.036V272.696C936.292 278.307 936.367 283.387 936.519 287.936C936.822 292.485 937.201 295.367 937.656 296.58L952.896 299.992L952.214 310H894.894ZM923.781 188.308C918.474 188.308 914.228 186.716 911.043 183.532C907.859 180.195 906.267 176.253 906.267 171.704C906.267 167.306 907.859 163.439 911.043 160.103C914.228 156.767 918.474 155.099 923.781 155.099C929.089 155.099 933.259 156.767 936.292 160.103C939.324 163.439 940.841 167.306 940.841 171.704C940.841 176.253 939.324 180.195 936.292 183.532C933.259 186.716 929.089 188.308 923.781 188.308ZM1001.92 310.91L960.521 224.247L949.83 220.608L950.285 210.827H1003.74L1004.42 220.608L990.318 224.247L1017.84 284.297H1011.24L1036.95 224.247L1022.85 220.608L1023.53 210.827H1063.56L1064.02 220.608L1053.32 224.247L1010.79 310.91H1001.92ZM1068.68 176.48H1113.72L1161.26 279.975H1155.57L1199.7 176.48H1243.6L1244.28 186.943L1229.95 190.128C1229.8 191.644 1229.8 194.905 1229.95 199.909C1230.1 204.913 1230.26 211.433 1230.41 219.47L1231.77 259.959C1232.08 266.631 1232.3 272.545 1232.46 277.7C1232.76 282.705 1232.99 286.799 1233.14 289.983C1233.44 293.016 1233.67 295.063 1233.82 296.125L1248.15 299.537L1247.47 310H1190.15L1189.47 299.537L1203.8 296.125C1203.95 295.367 1204.02 293.699 1204.02 291.121C1204.17 288.391 1204.25 284.6 1204.25 279.748C1204.25 274.744 1204.17 268.602 1204.02 261.323L1203.34 183.077H1212.21L1157.85 310.682H1145.79L1086.65 183.077H1097.8L1098.03 260.868C1098.03 272.848 1098.1 281.416 1098.25 286.571C1098.4 291.727 1098.56 294.912 1098.71 296.125L1114.4 299.537L1113.72 310H1065.5L1064.82 299.537L1080.51 296.125C1080.66 295.063 1080.81 293.016 1080.97 289.983C1081.12 286.799 1081.27 282.932 1081.42 278.383C1081.57 273.834 1081.65 268.905 1081.65 263.598L1082.33 219.925C1082.48 211.433 1082.48 204.913 1082.33 200.364C1082.33 195.663 1082.33 192.327 1082.33 190.355L1068 186.943L1068.68 176.48ZM1309.68 311.82C1300.28 311.82 1291.79 309.697 1284.21 305.451C1276.78 301.205 1270.94 295.367 1266.69 287.936C1262.45 280.354 1260.32 271.711 1260.32 262.006C1260.32 251.391 1262.67 242.141 1267.38 234.255C1272.08 226.218 1278.22 220.001 1285.8 215.604C1293.38 211.054 1301.49 208.856 1310.14 209.007C1323.33 209.159 1333.34 213.329 1340.16 221.518C1347.14 229.706 1350.63 240.397 1350.63 253.59V258.594H1283.3V247.221H1330.84L1327.65 251.997V245.174C1327.65 237.591 1325.91 231.602 1322.42 227.204C1319.08 222.807 1314.38 220.608 1308.32 220.608C1304.38 220.608 1300.74 221.745 1297.4 224.02C1294.06 226.294 1291.41 229.706 1289.44 234.255C1287.47 238.805 1286.48 244.491 1286.48 251.315V255.409C1286.48 266.631 1289.36 275.578 1295.13 282.25C1301.04 288.922 1308.85 292.258 1318.55 292.258C1323.71 292.258 1328.33 291.348 1332.43 289.528C1336.67 287.557 1340.85 284.221 1344.94 279.52L1351.54 285.434C1347.29 294.229 1341.45 300.826 1334.02 305.223C1326.74 309.621 1318.63 311.82 1309.68 311.82ZM1439.91 312.73L1434.68 309.545L1434.9 294.988L1434.22 294.76C1430.13 301.129 1425.65 305.602 1420.8 308.18C1416.1 310.758 1411.25 312.047 1406.24 312.047C1398.06 312.047 1390.55 310 1383.73 305.906C1376.9 301.811 1371.44 296.201 1367.35 289.074C1363.41 281.795 1361.43 273.379 1361.43 263.825C1361.43 255.333 1362.95 247.751 1365.98 241.079C1369.02 234.255 1373.11 228.493 1378.27 223.792C1383.57 219.091 1389.41 215.528 1395.78 213.101C1402.15 210.524 1408.6 209.235 1415.12 209.235C1418.45 209.235 1421.86 209.614 1425.35 210.372C1428.84 210.979 1431.72 211.964 1434 213.329C1434 210.599 1433.92 207.339 1433.77 203.548C1433.77 199.605 1433.69 195.663 1433.54 191.72C1433.54 187.777 1433.46 184.214 1433.31 181.029C1433.31 177.845 1433.24 175.495 1433.09 173.978L1415.8 171.249L1415.34 162.15L1455.38 151.687L1460.84 155.326C1460.38 164.728 1460 173.599 1459.7 181.939C1459.39 190.128 1459.24 198.771 1459.24 207.87L1459.02 260.413C1459.02 268.147 1459.24 274.516 1459.7 279.52C1460.15 284.524 1460.53 288.315 1460.84 290.893L1475.62 294.305V303.404L1439.91 312.73ZM1415.34 292.485C1418.38 292.485 1421.56 291.651 1424.9 289.983C1428.23 288.315 1431.34 285.51 1434.22 281.567V231.753C1431.8 228.114 1428.92 225.536 1425.58 224.02C1422.24 222.503 1418.91 221.745 1415.57 221.745C1407.69 221.745 1401.24 224.854 1396.24 231.071C1391.38 237.288 1388.96 245.78 1388.96 256.547C1388.96 268.071 1391.54 276.942 1396.69 283.16C1401.85 289.377 1408.06 292.485 1415.34 292.485Z" fill="#BF5B39"/>
<path d="M1549.56 167.375L1549.38 164.875L1552.19 164.25L1552 144.25H1554.31L1543.94 167.375H1540.81L1528.81 144.312H1532.06L1532.25 164.25L1535.38 164.875L1535.19 167.375H1525.31L1525.12 164.875L1528.25 164.25L1528.56 146.188L1525.44 145.562L1525.62 143H1535.62L1544.75 160.688H1543.31L1551.31 143H1561.62L1561.81 145.5L1558.69 146.125L1559.19 164.25L1562.31 164.875L1562.12 167.375H1549.56ZM1502.81 167.375L1502.62 164.938L1506.81 164.25C1506.9 163.542 1506.94 162.583 1506.94 161.375C1506.98 160.125 1507 158.771 1507 157.312V154.25C1507 152.958 1506.98 151.688 1506.94 150.438C1506.94 149.188 1506.94 148.125 1506.94 147.25C1506.94 146.375 1506.92 145.875 1506.88 145.75C1506.75 145.708 1506.54 145.688 1506.25 145.688C1505.96 145.646 1505.69 145.625 1505.44 145.625H1504.12C1503.67 145.625 1503.27 145.646 1502.94 145.688C1502.65 145.688 1502.29 145.708 1501.88 145.75L1500.19 150.688L1497.31 150.438L1498.19 142.75C1498.6 142.75 1499.23 142.771 1500.06 142.812C1500.94 142.854 1501.83 142.896 1502.75 142.938C1503.67 142.979 1504.4 143 1504.94 143H1515.62C1516.17 143 1516.88 142.979 1517.75 142.938C1518.67 142.896 1519.54 142.854 1520.38 142.812C1521.25 142.771 1521.9 142.75 1522.31 142.75L1523.38 150.438L1520.5 150.625L1518.75 145.75C1518.29 145.708 1517.92 145.688 1517.62 145.688C1517.38 145.646 1517.04 145.625 1516.62 145.625H1515.25C1515 145.625 1514.73 145.646 1514.44 145.688C1514.15 145.688 1513.94 145.708 1513.81 145.75C1513.81 145.917 1513.79 146.438 1513.75 147.312C1513.75 148.146 1513.75 149.188 1513.75 150.438C1513.75 151.688 1513.75 152.958 1513.75 154.25V157.312C1513.75 158.771 1513.75 160.125 1513.75 161.375C1513.79 162.583 1513.83 163.542 1513.88 164.25L1518 164.875L1517.81 167.375H1502.81Z" fill="#BF5B39"/>
</svg>
